<svg version="1.1" id="Layer_1" xmlns="http://www.w3.org/2000/svg" x="0" y="0" viewBox="0 0 512 512" style="enable-background:new 0 0 512 512" xml:space="preserve"><path style="fill:#ca80dc" d="M256 130.458c-10.345 0-18.732-8.387-18.732-18.732V18.732C237.268 8.387 245.655 0 256 0c10.345 0 18.732 8.387 18.732 18.732v92.994c0 10.345-8.387 18.732-18.732 18.732zM256 512c-10.345 0-18.732-8.387-18.732-18.732v-92.994c0-10.345 8.387-18.732 18.732-18.732 10.345 0 18.732 8.387 18.732 18.732v92.994c0 10.345-8.387 18.732-18.732 18.732zM121.689 200.085l-80.535-46.497c-8.959-5.172-12.028-16.629-6.856-25.589 5.172-8.959 16.629-12.03 25.588-6.857l80.535 46.497c8.959 5.172 12.028 16.629 6.856 25.589-5.172 8.96-16.628 12.03-25.588 6.857zM34.298 384c-5.172-8.959-2.103-20.415 6.856-25.589l80.535-46.497c8.959-5.172 20.416-2.103 25.588 6.856 5.172 8.959 2.103 20.415-6.856 25.588l-80.535 46.497c-8.956 5.171-20.413 2.109-25.588-6.855z"/><path style="fill:#b757d1" d="M256.001 0v130.458c10.345-.001 18.73-8.387 18.73-18.732V18.732C274.732 8.387 266.346.001 256.001 0zM256.001 381.542V512c10.345-.001 18.73-8.387 18.73-18.732v-92.994c.001-10.344-8.385-18.73-18.73-18.732zM452.115 390.857 371.58 344.36c-8.959-5.172-12.028-16.629-6.856-25.588 5.171-8.959 16.628-12.03 25.587-6.856l80.535 46.497c8.959 5.172 12.028 16.629 6.856 25.589-5.171 8.957-16.627 12.028-25.587 6.855zM364.724 193.229c-5.172-8.959-2.103-20.415 6.856-25.589l80.535-46.497c8.959-5.172 20.416-2.103 25.587 6.857 5.172 8.959 2.103 20.415-6.856 25.589l-80.535 46.497c-8.955 5.169-20.413 2.107-25.587-6.857z"/></svg>