<svg xmlns="http://www.w3.org/2000/svg" width="22" height="22"><defs><radialGradient id="radial0" gradientUnits="userSpaceOnUse" cx="71.753" cy="72.011" fx="71.753" fy="72.011" r="70.248" gradientTransform="scale(.1279)"><stop offset=".693" style="stop-color:#85007f;stop-opacity:1"/><stop offset=".921" style="stop-color:#7835f1;stop-opacity:1"/></radialGradient><linearGradient id="linear0" gradientUnits="userSpaceOnUse" x1="31.931" y1="31.931" x2="112.298" y2="112.298" gradientTransform="scale(.45833)"><stop offset="0" style="stop-color:#fbceff;stop-opacity:1"/><stop offset=".223" style="stop-color:#e6b7ff;stop-opacity:1"/><stop offset=".53" style="stop-color:#c0a7ff;stop-opacity:1"/><stop offset=".885" style="stop-color:#9a65f8;stop-opacity:1"/><stop offset="1" style="stop-color:#982ce8;stop-opacity:1"/></linearGradient></defs><g id="surface278514011"><path style="stroke:none;fill-rule:nonzero;fill:#c87ed9;fill-opacity:1" d="m16.492 14.871-1.62 1.621 3.608 3.61a.231.231 0 0 0 .32 0l1.298-1.297a.229.229 0 0 0 0-.325Zm0 0"/><path style="stroke:none;fill-rule:nonzero;fill:url(#radial0)" d="m14.484 12.863-1.62 1.621 2.007 2.008 1.621-1.62Zm0 0"/><path style="stroke:none;fill-rule:nonzero;fill:url(#linear0)" d="M16.5 9.168a7.335 7.335 0 0 1-14.668 0 7.337 7.337 0 0 1 7.336-7.336A7.336 7.336 0 0 1 16.5 9.168Zm0 0"/></g></svg>